<?xml version="1.0" encoding="utf-8"?>
<!-- Generator: Adobe Illustrator 16.0.0, SVG Export Plug-In . SVG Version: 6.00 Build 0)  -->
<!DOCTYPE svg PUBLIC "-//W3C//DTD SVG 1.1//EN" "http://www.w3.org/Graphics/SVG/1.1/DTD/svg11.dtd">
<svg version="1.1" id="레이어_1" xmlns="http://www.w3.org/2000/svg" xmlns:xlink="http://www.w3.org/1999/xlink" x="0px"
	 y="0px" width="347px" height="112.88px" viewBox="0 0 347 112.88" enable-background="new 0 0 347 112.88" xml:space="preserve">
<path d="M101.619,9.578C95.145,3.23,87.472,0,78.036,0c-4.74,0-9.476,0.696-13.983,2.77c-4.506,2.074-8.106,4.98-11.026,8.492
	c-4.679,5.614-7.764,12.475-8.132,21.141c-3.797-1.271-7.48-1.916-12.198-1.916c-9.184,0-16.98,3.48-23.391,9.869
	C2.893,46.746,0,54.533,0,63.716c0,9.438,3.174,17.287,9.521,23.549c6.348,6.264,13.97,9.197,23.492,9.197
	c1.607,0,2.987,0.027,4.935-0.311V71.446c-2.489,1.213-4.927,1.221-5.379,1.225c-2.539,0.014-5.253-1.877-6.114-2.738
	c-1.672-1.672-2.532-4.043-2.532-5.709c0-2.496,0.796-5.506,2.616-7.326c1.819-1.818,3.978-2.787,6.475-2.787
	c2.75,0,5.564,0.968,7.193,2.957c1.629,1.99,2.388,5.59,2.388,8.934v29.895h2.814v0.041l22.889,0.057V35.825
	c0-8.073,3.331-12.231,9.424-12.231c2.539,0,4.718,0.877,6.538,2.633c1.819,1.756,2.815,3.485,2.815,5.981s-0.255,4.824-2.01,6.644
	c-1.757,1.82-4.004,3.269-6.458,3.269c-1.947,0-4.054-0.306-5.556-1.185v24.849c3.08,0,4.625-0.012,6.064-0.012
	c8.802,0,16.419-3.371,22.852-9.889c6.432-6.517,9.194-14.261,9.194-23.232C111.161,23.429,108.094,15.926,101.619,9.578z"/>
<path d="M169.635,64.032c0-16.136-13.081-29.218-29.218-29.218c-16.135,0-29.218,13.082-29.218,29.218
	c0,16.137,13.083,29.219,29.218,29.219c10.391,0,19.509-5.43,24.69-13.602v10.084c0,1.318,1.012,2.389,2.264,2.389
	c1.251,0,2.265-1.07,2.265-2.389V66.419c0-0.186-0.025-0.367-0.064-0.541C169.607,65.269,169.635,64.653,169.635,64.032z
	 M140.417,88.743c-13.648,0-24.712-11.063-24.712-24.711s11.064-24.712,24.712-24.712c13.648,0,24.711,11.063,24.711,24.712
	S154.064,88.743,140.417,88.743z"/>
<path d="M208.102,34.609c-16.152,0-29.251,13.094-29.251,29.249c0,0.93,0.048,1.85,0.133,2.756
	c-0.079,0.418-0.133,0.861-0.133,1.328v40.732c0,2.258,1.015,3.248,2.267,3.248s2.269-0.99,2.269-3.248V79.491
	c5.186,8.18,14.313,13.617,24.716,13.617c16.155,0,29.25-13.098,29.25-29.25C237.352,47.703,224.257,34.609,208.102,34.609z
	 M208.102,88.597c-13.66,0-24.737-11.076-24.737-24.738c0-13.663,11.077-24.74,24.737-24.74c13.663,0,24.738,11.077,24.738,24.74
	C232.84,77.521,221.765,88.597,208.102,88.597z"/>
<path d="M288.743,84.438c-3.999,2.773-8.286,4.119-13.523,4.119c-13.488,0-24.454-10.779-24.769-24.193
	c0.012,0,0.021,0.002,0.033,0.002h49.503c0,0.008-0.002,0.016-0.002,0.023h4.521c0.004-0.203,0.016-0.408,0.016-0.613
	c0-16.184-13.118-29.302-29.302-29.302c-16.182,0-29.302,13.118-29.302,29.302c0,16.182,13.12,29.303,29.302,29.303
	c5.108,0,9.344-1.027,13.523-3.324V84.438z M275.22,38.992c12.343,0,22.572,9.023,24.465,20.833h-48.931
	C252.646,48.016,262.879,38.992,275.22,38.992z"/>
<path d="M326.552,63.56l15.293-25.316c0.578-0.963,0.281-2.211-0.672-2.783c-0.953-0.576-2.195-0.262-2.777,0.7l-14.18,23.478
	l-14.033-23.566c-0.576-0.963-1.816-1.287-2.771-0.717c-0.957,0.568-1.266,1.814-0.689,2.779l15.133,25.412l-15.291,25.316
	c-0.578,0.963-0.281,2.209,0.672,2.783c0.953,0.576,2.197,0.262,2.775-0.701l14.18-23.475l14.035,23.564
	c0.576,0.963,1.816,1.287,2.77,0.717c0.957-0.57,1.266-1.814,0.691-2.779L326.552,63.56z"/>
</svg>
