<?xml version="1.0" encoding="utf-8"?>
<!-- Generator: Adobe Illustrator 23.0.0, SVG Export Plug-In . SVG Version: 6.00 Build 0)  -->
<svg version="1.1" id="Layer_1" xmlns="http://www.w3.org/2000/svg" xmlns:xlink="http://www.w3.org/1999/xlink" x="0px" y="0px"
	 viewBox="0 0 24 24" style="enable-background:new 0 0 24 24;" xml:space="preserve">
<path d="M24,9.29c-0.1-0.31-0.31-0.42-0.52-0.42l-7.81-0.63l-3.02-7.19c-0.21-0.31-0.42-0.52-0.63-0.52c-0.21,0-0.42,0.1-0.52,0.42
	L8.48,8.15L0.56,8.87c-0.21,0-0.42,0.21-0.52,0.42c-0.1,0.21,0,0.52,0.21,0.63l5.94,5.1l-1.77,7.6c-0.1,0.21,0,0.52,0.21,0.63
	c0.1,0.1,0.21,0.21,0.42,0.21c0.1,0,0.21,0,0.31-0.1l6.67-4.06l6.67,4.06c0.21,0.1,0.52,0.1,0.63,0c0.21-0.1,0.31-0.42,0.21-0.63
	l-1.77-7.6l5.94-5.1C24,9.71,24,9.5,24,9.29z"/>
</svg>
